<?xml version="1.0" encoding="utf-8"?>
<!-- Generator: Adobe Illustrator 19.2.1, SVG Export Plug-In . SVG Version: 6.00 Build 0)  -->
<svg version="1.1" id="Capa_1" xmlns="http://www.w3.org/2000/svg" xmlns:xlink="http://www.w3.org/1999/xlink" x="0px" y="0px"
	 viewBox="0 0 313.8 60" style="enable-background:new 0 0 313.8 60;" xml:space="preserve">
<style type="text/css">
	.st0{fill:#002F87;}
	.st1{fill:#1171B4;}
	.st2{fill:#1C9BD3;}
	.st3{fill:#61B4E4;}
	.st4{fill:#9ACAEB;}
	.st5{fill:#BAD8EB;}
</style>
<g>
	<path class="st0" d="M122.9,33.4V10h6.8c1.2,0,2.3,0.1,3.2,0.4c1,0.2,1.9,0.7,2.6,1.3c0.5,0.4,0.9,0.9,1.2,1.5
		c0.4,0.8,0.6,1.7,0.6,2.9c0,1.2-0.3,2.2-0.7,3c-0.5,0.8-1.1,1.3-1.9,1.8c-0.2,0.1-0.3,0.2-0.5,0.3c0.4,0.1,0.8,0.3,1.1,0.4
		c0.7,0.3,1.4,0.8,1.9,1.4c0.3,0.4,0.6,0.9,0.8,1.4c0.3,0.7,0.4,1.5,0.4,2.5c0,1.3-0.3,2.4-0.8,3.3c-0.5,0.9-1.2,1.6-2.1,2.1
		c-0.6,0.3-1.3,0.6-2,0.8c-1,0.3-2.1,0.4-3.2,0.4H122.9 M130.1,31.1c1,0,1.8-0.1,2.6-0.3c0.7-0.2,1.4-0.6,1.9-1
		c0.3-0.3,0.6-0.7,0.8-1.1c0.3-0.5,0.4-1.2,0.4-2c0-0.9-0.2-1.7-0.5-2.2c-0.3-0.6-0.8-1.1-1.4-1.4c-0.4-0.2-0.9-0.4-1.5-0.5
		c-0.7-0.2-1.6-0.3-2.6-0.3h-4.4v8.9H130.1z M129.5,20c0.8,0,1.6-0.1,2.3-0.3c0.7-0.2,1.3-0.5,1.7-0.9c0.3-0.3,0.6-0.6,0.7-0.9
		c0.2-0.5,0.4-1.1,0.4-1.9c0-0.9-0.2-1.5-0.5-2.1c-0.3-0.5-0.7-0.9-1.3-1.2c-0.4-0.2-0.8-0.3-1.3-0.4c-0.6-0.1-1.3-0.2-2-0.2h-4.2
		V20H129.5z"/>
	<path class="st0" d="M153.8,18.3c-0.2-0.5-0.5-0.9-0.9-1.3c-0.5-0.5-1.2-0.9-2.1-1.1c-0.8-0.2-1.7-0.3-2.7-0.3
		c-3.4,0-5.2,1-6.5,1.7c0.9,1.9,1.9,1.5,3.1,0.9c1-0.4,2-0.6,3.2-0.6c0.5,0,1.1,0.1,1.7,0.2c0.3,0.1,0.6,0.2,0.9,0.4
		c0.4,0.3,0.7,0.6,0.9,1c0.2,0.4,0.3,0.9,0.3,1.6v2.5c-1.3-0.3-2.5-0.4-4-0.4c-1,0-2,0.1-2.8,0.3c-0.6,0.2-1.2,0.4-1.8,0.6
		c-0.8,0.4-1.4,1-1.9,1.7c-0.5,0.7-0.7,1.6-0.7,2.6c0,0.8,0.2,1.6,0.4,2.3c0.4,1,1.2,1.8,2.1,2.3c0.9,0.5,2,0.8,3.3,0.8c0,0,0,0,0,0
		c1.4,0,2.6-0.3,3.5-0.7c0.7-0.3,1.2-0.7,1.8-1.2c0,0.2,0,0.4,0.1,0.6c0,0.2,0.1,0.4,0.2,0.5c0.1,0.1,0.1,0.2,0.2,0.3
		c0.2,0.1,0.3,0.2,0.5,0.3c0.2,0.1,0.4,0.1,0.6,0.1h0.8V20.7C154.2,19.8,154.1,19,153.8,18.3 M151.8,29c-0.6,0.7-1.3,1.3-2,1.7
		c-0.8,0.4-1.8,0.7-3.1,0.7c-0.5,0-1-0.1-1.5-0.2c-0.3-0.1-0.6-0.2-0.9-0.4c-0.4-0.2-0.7-0.6-0.9-1c-0.2-0.5-0.3-1-0.3-1.7
		c0-0.6,0.1-1.1,0.3-1.5c0.2-0.3,0.4-0.5,0.7-0.8c0.4-0.3,0.9-0.6,1.6-0.7c0.6-0.2,1.4-0.2,2.2-0.2c1.4,0,2.7,0.2,3.9,0.4V29z"/>
	<path class="st0" d="M170,33.4V20.6c0-0.7-0.1-1.2-0.3-1.6c-0.2-0.4-0.4-0.7-0.7-0.9c-0.2-0.1-0.4-0.2-0.7-0.3
		c-0.4-0.1-0.8-0.1-1.2-0.1c-1.2,0-2.3,0.3-3.4,0.8c-1,0.5-2,1.1-2.9,1.8v13h-2.4V15.8h1.2c0.1,0,0.2,0,0.4,0c0.1,0,0.2,0.1,0.4,0.1
		c0.1,0,0.2,0.1,0.2,0.2c0.1,0.1,0.2,0.2,0.2,0.3c0.1,0.2,0.1,0.3,0.1,0.5c0,0.3,0,0.5,0,0.9V18c0.8-0.6,1.7-1.1,2.7-1.6
		c1.3-0.5,2.7-0.9,4.3-0.9c0.7,0,1.4,0.1,2,0.3c0.6,0.2,1.2,0.5,1.6,1.1c0.3,0.3,0.5,0.7,0.7,1.2c0.2,0.7,0.4,1.4,0.4,2.3v12.9H170"
		/>
	<path class="st0" d="M194.4,32.1c-1.3-0.9-2.3-2.2-2.9-3.9c-0.4-1.1-0.6-2.3-0.6-3.7c0-2,0.5-3.8,1.3-5.2c0.8-1.4,2.1-2.5,3.6-3.1
		c1-0.4,2.1-0.6,3.3-0.6c1.8,0,3.5,0.5,4.8,1.4c1.3,0.9,2.3,2.2,2.9,3.9c0.4,1.1,0.6,2.3,0.6,3.7c0,2-0.4,3.8-1.3,5.2
		c-0.8,1.4-2.1,2.5-3.6,3.1c-1,0.4-2.1,0.6-3.3,0.6C197.3,33.5,195.7,33,194.4,32.1 M195.7,18.7c-0.9,0.7-1.6,1.6-2,2.9
		c-0.3,0.9-0.4,1.8-0.4,3c0,1.7,0.3,3.1,0.9,4.1c0.6,1.1,1.4,1.8,2.5,2.3c0.7,0.3,1.5,0.5,2.4,0.5c1.4,0,2.5-0.4,3.4-1
		c0.9-0.7,1.6-1.6,2-2.9c0.3-0.8,0.4-1.8,0.4-3c0-1.7-0.3-3-0.9-4.1c-0.6-1.1-1.4-1.9-2.4-2.3c-0.7-0.3-1.5-0.5-2.4-0.5
		C197.7,17.7,196.6,18,195.7,18.7z"/>
	<path class="st0" d="M231.8,33.4V20.5c0-0.7-0.1-1.2-0.2-1.6c-0.2-0.4-0.4-0.6-0.6-0.8c-0.2-0.1-0.4-0.2-0.7-0.3
		c-0.3-0.1-0.7-0.1-1.2-0.1c-1.1,0-2.1,0.3-3.1,0.8c-0.9,0.5-1.7,1.1-2.6,1.7v13.1H221V20.5c0-0.7-0.1-1.2-0.3-1.6
		c-0.2-0.4-0.4-0.6-0.6-0.8c-0.2-0.1-0.4-0.2-0.6-0.3c-0.3-0.1-0.7-0.1-1.1-0.1c-1.2,0-2.2,0.3-3.2,0.8c-0.9,0.5-1.7,1.1-2.6,1.7
		v13.1h-2.4V15.8h1.1c0.1,0,0.2,0,0.4,0c0.1,0,0.2,0.1,0.4,0.1c0.1,0,0.2,0.1,0.2,0.2c0.1,0.1,0.2,0.2,0.2,0.3
		c0,0.2,0.1,0.3,0.1,0.5c0,0.3,0,0.6,0,0.9v0c0.7-0.5,1.5-1,2.3-1.4c1.2-0.5,2.5-0.9,4-0.9c0.7,0,1.4,0.1,2.1,0.4
		c0.7,0.3,1.2,0.7,1.7,1.3c0.2,0.2,0.3,0.5,0.4,0.8c0.8-0.6,1.7-1.2,2.6-1.6c1.2-0.5,2.5-0.9,3.9-0.9c0.7,0,1.3,0.1,1.9,0.3
		c0.6,0.2,1.1,0.6,1.6,1c0.3,0.3,0.5,0.7,0.7,1.1c0.2,0.6,0.3,1.3,0.3,2v13.3H231.8"/>
	<path class="st0" d="M99.7,24.9l3.2-10.7l3.2,10.7H99.7 M108,12.3c-0.6-1.9-1-2.4-2.8-2.4h-4.5l-7.2,23.4h3.6l1.5-5h8.5l1.5,5h6.3
		L108,12.3z"/>
	<path class="st0" d="M64.9,30.2V13h3c1.4,0,2.7,1.2,2.7,2.6c0,0.5-0.1,1-0.6,1.7l-1.9,2.9c2,0.5,3.4,2,3.4,4.9c0,3.5-2.1,5-4.9,5
		H64.9 M72.5,19.1l1.1-1.7c2.4-3.6,0.8-7.5-4-7.5H59.4v23.4h9.8C77.9,33.4,80.5,23.3,72.5,19.1"/>
	<path class="st0" d="M46.8,30.2h-1.7V13h3c1.5,0,2.7,1.2,2.7,2.6c0,0.5-0.1,1-0.6,1.7l-2,2.9c2,0.5,3.4,2,3.4,4.9
		C51.7,28.7,49.6,30.2,46.8,30.2 M52.7,19.1l1.1-1.7c2.4-3.6,0.8-7.5-4-7.5H39.6v23.4h9.8C58.1,33.4,60.7,23.3,52.7,19.1"/>
	<path class="st0" d="M82.8,13c-0.8-2.6-1.3-3-2.9-3h-4.1l7.7,23.4h5.6L96.2,10h-3.7l-5.3,17.8L82.8,13"/>
	<path class="st0" d="M189.1,17.4c-0.9,1.9-1.8,1.3-3,0.8c-0.7-0.3-1.5-0.5-2.7-0.5c-1.3,0-2.5,0.4-3.4,1c-0.9,0.7-1.6,1.6-2,2.9
		c-0.3,0.8-0.4,1.8-0.4,2.9c0,1.3,0.2,2.4,0.5,3.3c0.3,0.9,0.8,1.7,1.4,2.2c0.4,0.4,0.9,0.7,1.4,0.9c0.7,0.3,1.5,0.4,2.5,0.4
		c1.2,0,2.2-0.3,2.9-0.6c1.2-0.6,2-1.3,3.1,0.5c-0.4,0.4-1.2,1-2,1.4c-0.1,0.1-0.2,0.1-0.4,0.2c-1,0.4-2.2,0.7-3.7,0.7h0
		c-1.9,0-3.6-0.5-4.9-1.4c-1.3-0.9-2.3-2.2-2.8-3.9c-0.4-1.1-0.6-2.3-0.6-3.7c0-2.1,0.5-3.8,1.3-5.3c0.9-1.4,2.1-2.5,3.7-3.1
		c1-0.4,2.2-0.6,3.4-0.6C184.2,15.6,186.7,15.4,189.1,17.4"/>
	<path class="st0" d="M251.6,20.2c-0.3-0.8-0.6-1.5-1-2.1c-0.6-0.9-1.5-1.5-2.4-1.9c-1-0.4-2.1-0.6-3.3-0.6c-1.1,0-2.2,0.2-3.1,0.6
		c-1.4,0.6-2.6,1.7-3.4,3.2c-0.8,1.4-1.3,3.2-1.3,5.2c0,1.3,0.2,2.5,0.5,3.6c0.5,1.6,1.5,3,2.8,3.9c1.3,0.9,3,1.4,4.9,1.4h0
		c1.6,0,2.8-0.3,3.9-0.6c1.7-0.6,2.5-1.4,2.9-1.8c-1.1-1.7-1.8-1-3.1-0.4c-0.8,0.4-2.2,0.7-3.6,0.7c-1,0-1.9-0.2-2.6-0.4
		c-0.6-0.2-1-0.5-1.4-0.9c-0.6-0.5-1.1-1.3-1.4-2.2c-0.3-0.8-0.5-1.8-0.5-2.9h12.7v-0.4c0,0,0,0,0-0.1c0-0.1,0-0.4,0-0.7
		C252.1,22.4,251.9,21.2,251.6,20.2 M239.5,23c0.1-0.8,0.3-1.5,0.6-2.1c0.5-1.1,1.1-1.9,1.9-2.4c0.8-0.5,1.8-0.8,2.9-0.8
		c0.7,0,1.4,0.1,2,0.3c0.4,0.2,0.8,0.4,1.2,0.7c0.5,0.4,0.9,1,1.2,1.8c0.3,0.7,0.4,1.5,0.5,2.6H239.5z"/>
	<path class="st0" d="M262.5,15.7c-1.3,0-2.4,0.4-3.4,1c-0.6,0.4-1.2,0.9-1.7,1.4c0-0.4,0-0.7-0.1-1c0-0.2,0-0.4-0.1-0.6
		c0-0.1-0.1-0.2-0.2-0.3c-0.1-0.1-0.1-0.1-0.2-0.2c-0.1-0.1-0.2-0.1-0.4-0.1c-0.1,0-0.2,0-0.3,0h-1.2v17.6h2.4V20.7
		c0.9-1,1.6-1.6,2.2-2c0,0,0,0,0.1,0c1-0.6,1.8-0.8,2.4-0.9c1.1-0.1,1.9-0.3,2-2C263.5,15.7,263,15.7,262.5,15.7"/>
</g>
<g>
	<rect x="15.1" y="2.7" class="st0" width="9.2" height="9.2"/>
	<rect x="15.1" y="11.9" class="st1" width="9.2" height="9.2"/>
	<rect x="15.1" y="21.1" class="st2" width="9.2" height="9.2"/>
	<rect x="15.1" y="30.3" class="st3" width="9.2" height="9.2"/>
	<rect x="15.1" y="39.5" class="st4" width="9.2" height="9.2"/>
	<rect x="15.1" y="48.7" class="st5" width="9.2" height="9.2"/>
</g>
<path class="st0" d="M40.7,44.6c0.5-0.1,1.4-0.2,2.2-0.2c1.2,0,2,0.2,2.6,0.7c0.5,0.4,0.8,0.9,0.8,1.7c0,0.9-0.6,1.7-1.6,2.1v0
	c0.9,0.2,2,1,2,2.4c0,0.8-0.3,1.4-0.8,1.9c-0.7,0.6-1.7,0.9-3.3,0.9c-0.8,0-1.5-0.1-1.9-0.1V44.6z M41.9,48.5H43c1.3,0,2-0.7,2-1.6
	c0-1.1-0.8-1.5-2.1-1.5c-0.6,0-0.9,0-1.1,0.1V48.5z M41.9,53c0.2,0,0.6,0.1,1,0.1c1.3,0,2.4-0.5,2.4-1.8c0-1.3-1.1-1.8-2.4-1.8h-1
	V53z"/>
<path class="st0" d="M52,54l-0.1-0.9h0c-0.4,0.5-1.1,1-2.1,1c-1.4,0-2.1-1-2.1-2c0-1.6,1.5-2.5,4.1-2.5v-0.1c0-0.6-0.2-1.6-1.5-1.6
	c-0.6,0-1.3,0.2-1.8,0.5l-0.3-0.8c0.6-0.4,1.4-0.6,2.2-0.6c2.1,0,2.6,1.4,2.6,2.8v2.5c0,0.6,0,1.2,0.1,1.6H52z M51.8,50.5
	c-1.3,0-2.9,0.2-2.9,1.5c0,0.8,0.5,1.2,1.2,1.2c0.9,0,1.4-0.6,1.6-1.1c0-0.1,0.1-0.3,0.1-0.4V50.5z"/>
<path class="st0" d="M55,49c0-0.7,0-1.3-0.1-1.8h1.1l0.1,1.1h0c0.3-0.6,1.1-1.3,2.2-1.3c0.9,0,2.4,0.6,2.4,2.9V54h-1.2v-3.9
	c0-1.1-0.4-2-1.6-2c-0.8,0-1.4,0.6-1.7,1.3c-0.1,0.2-0.1,0.4-0.1,0.6V54H55V49z"/>
<path class="st0" d="M67.7,53.7c-0.3,0.2-1,0.4-2,0.4c-2,0-3.4-1.4-3.4-3.5c0-2.1,1.4-3.6,3.6-3.6c0.7,0,1.4,0.2,1.7,0.4l-0.3,1
	C67.1,48.2,66.6,48,66,48c-1.6,0-2.4,1.2-2.4,2.6c0,1.6,1,2.5,2.4,2.5c0.7,0,1.2-0.2,1.5-0.3L67.7,53.7z"/>
<path class="st0" d="M72.9,54l-0.1-0.9h0c-0.4,0.5-1.1,1-2.1,1c-1.4,0-2.1-1-2.1-2c0-1.6,1.5-2.5,4.1-2.5v-0.1
	c0-0.6-0.2-1.6-1.5-1.6c-0.6,0-1.3,0.2-1.8,0.5l-0.3-0.8c0.6-0.4,1.4-0.6,2.2-0.6c2.1,0,2.6,1.4,2.6,2.8v2.5c0,0.6,0,1.2,0.1,1.6
	H72.9z M72.7,50.5c-1.3,0-2.9,0.2-2.9,1.5c0,0.8,0.5,1.2,1.2,1.2c0.9,0,1.4-0.6,1.6-1.1c0-0.1,0.1-0.3,0.1-0.4V50.5z"/>
<path class="st0" d="M85.5,53.7c-0.4,0.2-1.3,0.4-2.5,0.4c-2.7,0-4.7-1.7-4.7-4.8c0-3,2-5,4.9-5c1.2,0,1.9,0.3,2.2,0.4l-0.3,1
	c-0.5-0.2-1.1-0.4-1.9-0.4c-2.2,0-3.7,1.4-3.7,3.9c0,2.3,1.3,3.8,3.6,3.8c0.7,0,1.5-0.2,2-0.4L85.5,53.7z"/>
<path class="st0" d="M93,50.5c0,2.5-1.7,3.6-3.4,3.6c-1.8,0-3.3-1.3-3.3-3.5c0-2.3,1.5-3.6,3.4-3.6C91.7,47,93,48.4,93,50.5z
	 M87.6,50.6c0,1.5,0.9,2.6,2.1,2.6c1.2,0,2.1-1.1,2.1-2.6c0-1.2-0.6-2.6-2-2.6C88.2,48,87.6,49.3,87.6,50.6z"/>
<path class="st0" d="M94.5,49c0-0.7,0-1.3-0.1-1.8h1.1l0.1,1.1h0c0.4-0.6,1-1.2,2.1-1.2c0.9,0,1.6,0.6,1.9,1.4h0
	c0.2-0.4,0.5-0.7,0.8-0.9c0.4-0.3,0.9-0.5,1.5-0.5c0.9,0,2.2,0.6,2.2,2.9v4H103v-3.8c0-1.3-0.5-2.1-1.5-2.1c-0.7,0-1.2,0.5-1.5,1.1
	c-0.1,0.2-0.1,0.4-0.1,0.6V54h-1.2v-4.1c0-1.1-0.5-1.9-1.4-1.9c-0.8,0-1.3,0.6-1.5,1.2c-0.1,0.2-0.1,0.4-0.1,0.6V54h-1.2V49z"/>
<path class="st0" d="M106.9,50.8c0,1.7,1.1,2.4,2.3,2.4c0.9,0,1.4-0.2,1.9-0.4l0.2,0.9c-0.4,0.2-1.2,0.4-2.3,0.4
	c-2.1,0-3.3-1.4-3.3-3.4c0-2,1.2-3.7,3.2-3.7c2.2,0,2.8,2,2.8,3.2c0,0.3,0,0.4,0,0.6H106.9z M110.6,49.9c0-0.8-0.3-2-1.7-2
	c-1.2,0-1.8,1.2-1.9,2H110.6z"/>
<path class="st0" d="M113.3,49.3c0-0.8,0-1.5-0.1-2.1h1.1l0,1.3h0.1c0.3-0.9,1.1-1.5,1.9-1.5c0.1,0,0.2,0,0.4,0v1.2
	c-0.1,0-0.3,0-0.4,0c-0.9,0-1.5,0.7-1.7,1.6c0,0.2-0.1,0.4-0.1,0.6V54h-1.2V49.3z"/>
<path class="st0" d="M122.6,53.7c-0.3,0.2-1,0.4-2,0.4c-2,0-3.4-1.4-3.4-3.5c0-2.1,1.4-3.6,3.6-3.6c0.7,0,1.4,0.2,1.7,0.4l-0.3,1
	c-0.3-0.2-0.8-0.3-1.4-0.3c-1.6,0-2.4,1.2-2.4,2.6c0,1.6,1,2.5,2.4,2.5c0.7,0,1.2-0.2,1.5-0.3L122.6,53.7z"/>
<path class="st0" d="M125.4,45.3c0,0.4-0.3,0.8-0.8,0.8c-0.4,0-0.7-0.3-0.7-0.8c0-0.4,0.3-0.8,0.8-0.8
	C125.1,44.5,125.4,44.8,125.4,45.3z M124,54v-6.8h1.2V54H124z"/>
<path class="st0" d="M131.1,54l-0.1-0.9h0c-0.4,0.5-1.1,1-2.1,1c-1.4,0-2.1-1-2.1-2c0-1.6,1.5-2.5,4.1-2.5v-0.1
	c0-0.6-0.2-1.6-1.5-1.6c-0.6,0-1.3,0.2-1.8,0.5l-0.3-0.8c0.6-0.4,1.4-0.6,2.2-0.6c2.1,0,2.6,1.4,2.6,2.8v2.5c0,0.6,0,1.2,0.1,1.6
	H131.1z M130.9,50.5c-1.3,0-2.9,0.2-2.9,1.5c0,0.8,0.5,1.2,1.2,1.2c0.9,0,1.4-0.6,1.6-1.1c0-0.1,0.1-0.3,0.1-0.4V50.5z"/>
<path class="st0" d="M134.1,44h1.2v10h-1.2V44z"/>
</svg>
